#!OML:ASF F:\VICON\USERDATA\INSTALL\rory3\rory3.ASF
:FULLY-SPECIFIED
:DEGREES
49
root 1.20024 18.3664 -2.45781 2.58704 -3.71462 0.700837
lowerback 14.7547 1.06725 -1.80811
upperback 2.86542 1.08685 -0.612128
thorax -5.25431 0.554623 0.171765
lowerneck -11.0628 -2.88748 -8.14364
upperneck 1.87632 -3.19945 8.62396
head 2.62292 -1.35104 3.76561
rclavicle 9.83984e-015 -1.23246e-014
rhumerus -26.8529 4.85785 -82.0226
rradius 40.5437
rwrist 13.2242
rhand -30.4488 -1.73204
rfingers 7.12502
rthumb -3.75082 -31.6788
lclavicle 9.83984e-015 -1.23246e-014
lhumerus -25.5092 6.51628 80.0415
lradius 30.2864
lwrist -0.0430562
lhand -20.6564 24.0259
lfingers 7.12502
lthumb 5.70608 53.929
rfemur -18.9007 8.47108 16.044
rtibia 36.7105
rfoot -21.1138 -7.18688
rtoes -1.41424
lfemur -18.1577 4.05274 -21.6975
ltibia 37.4697
lfoot -19.2464 5.48677
ltoes -1.68475
50
root 1.21298 18.3421 -2.48403 2.62546 -3.67152 0.852892
lowerback 15.002 1.11204 -1.82226
upperback 2.98696 1.13474 -0.678887
thorax -5.26027 0.577125 0.097372
lowerneck -10.9809 -2.87182 -7.98662
upperneck 1.46231 -3.17151 8.38634
head 2.47592 -1.34752 3.66978
rclavicle 1.20265e-014 -5.86415e-015
rhumerus -26.6526 5.02655 -81.9666
rradius 40.9184
rwrist 13.5848
rhand -31.0948 -0.899674
rfingers 7.12502
rthumb -4.37466 -30.8345
lclavicle 1.20265e-014 -5.86415e-015
lhumerus -25.1577 6.20326 80.0849
lradius 30.4429
lwrist -0.102216
lhand -20.5649 24.2368
lfingers 7.12502
lthumb 5.7944 54.1376
rfemur -19.3651 8.18335 15.7986
rtibia 37.3286
rfoot -21.5969 -6.8694
rtoes -1.6736
lfemur -18.5883 4.29186 -21.894
ltibia 37.9503
lfoot -19.2495 5.20421
ltoes -1.52807
51
root 1.22248 18.3135 -2.51007 2.74485 -3.69516 0.971231
lowerback 15.198 1.16326 -1.90275
upperback 3.02416 1.18339 -0.699213
thorax -5.32952 0.601983 0.108817
lowerneck -10.8156 -2.81306 -7.96526
upperneck 1.16193 -3.0859 8.2594
head 2.3496 -1.31357 3.63421
rclavicle 2.48481e-015 -4.47266e-015
rhumerus -26.5094 5.30542 -81.9368
rradius 41.1617
rwrist 13.7244
rhand -31.3787 -0.252153
rfingers 7.12502
rthumb -4.64881 -30.1811
lclavicle 2.48481e-015 -4.47266e-015
lhumerus -24.8695 5.77453 80.1575
lradius 30.5716
lwrist 0.125185
lhand -20.5074 24.4405
lfingers 7.12502
lthumb 5.84998 54.3398
rfemur -19.9604 7.98111 15.5888
rtibia 37.9663
rfoot -22.0713 -6.54072
rtoes -1.7522
lfemur -19.1184 4.62707 -22.0531
ltibia 38.4447
lfoot -19.2759 4.90194
ltoes -1.63084
52
root 1.2315 18.286 -2.53878 2.87309 -3.7432 0.980149
lowerback 15.4603 1.1981 -1.88878
upperback 3.01534 1.22362 -0.704391
thorax -5.48202 0.621956 0.0823374
lowerneck -10.8079 -2.73797 -7.87118
upperneck 1.06511 -2.98668 8.11654
head 2.30698 -1.26874 3.58095
rclavicle -8.29926e-015 1.09332e-014
rhumerus -26.3865 5.70016 -81.9612
rradius 41.2798
rwrist 13.928
rhand -31.7229 0.430874
rfingers 7.12502
rthumb -4.98118 -29.4906
lclavicle -8.29926e-015 1.09332e-014
lhumerus -24.7438 5.41769 80.1728
lradius 30.777
lwrist 0.494947
lhand -20.7858 24.1209
lfingers 7.12502
lthumb 5.58113 54.0274
rfemur -20.5536 7.83175 15.5091
rtibia 38.604
rfoot -22.4734 -6.25087
rtoes -1.96845
lfemur -19.6644 4.91047 -22.0781
ltibia 38.9328
lfoot -19.3531 4.57032
ltoes -1.23068
53
root 1.24365 18.259 -2.56319 2.89659 -3.72511 1.09337
lowerback 15.8084 1.21794 -1.89184
upperback 3.03886 1.23783 -0.736079
thorax -5.646 0.62909 0.0411475
lowerneck -10.8934 -2.68307 -7.86476
upperneck 1.0267 -2.90101 8.00579
head 2.29979 -1.22802 3.55028
rclavicle -2.03754e-015 -1.45113e-014
rhumerus -26.3027 6.05041 -81.9411
rradius 41.3856
rwrist 14.3724
rhand -32.511 1.02529
rfingers 7.12502
rthumb -5.74209 -28.8769
lclavicle -2.03754e-015 -1.45113e-014
lhumerus -24.7224 5.18348 80.1684
lradius 31.0401
lwrist 0.67974
lhand -20.8145 23.8186
lfingers 7.12502
lthumb 5.55349 53.7259
rfemur -21.0057 7.61184 15.3214
rtibia 39.256
rfoot -22.9143 -5.88585
rtoes -2.33005
lfemur -20.0748 5.1179 -22.2223
ltibia 39.4257
lfoot -19.5442 4.17595
ltoes -0.448141
54
root 1.2584 18.2316 -2.58338 2.93483 -3.65328 1.26455
lowerback 16.1132 1.21634 -1.89631
upperback 3.07462 1.22326 -0.793129
thorax -5.77218 0.621821 -0.0193002
lowerneck -10.9142 -2.62803 -7.81544
upperneck 0.864939 -2.81513 7.79425
head 2.24288 -1.19179 3.48237
rclavicle 7.77745e-015 -1.03368e-014
rhumerus -26.2692 6.37853 -81.9221
rradius 41.6654
rwrist 14.5943
rhand -32.9984 0.881387
rfingers 7.12502
rthumb -6.21267 -29.0075
lclavicle 7.77745e-015 -1.03368e-014
lhumerus -24.7316 4.95121 80.1425
lradius 31.4384
lwrist 0.737955
lhand -20.524 23.9937
lfingers 7.12502
lthumb 5.83393 53.8934
rfemur -21.4553 7.30692 15.0666
rtibia 39.9081
rfoot -23.3617 -5.54427
rtoes -2.98839
lfemur -20.475 5.31323 -22.4552
ltibia 39.9412
lfoot -19.7373 3.8237
ltoes -0.0330757
55
root 1.27005 18.2034 -2.60981 3.03662 -3.57868 1.32688
lowerback 16.3914 1.22064 -1.83526
upperback 3.14797 1.23174 -0.805388
thorax -5.84368 0.624554 -0.0731701
lowerneck -11.0449 -2.61121 -7.77077
upperneck 0.663197 -2.77328 7.6342
head 2.19611 -1.17357 3.42801
rclavicle -1.11071e-014 -5.76476e-015
rhumerus -26.0751 6.55531 -81.8536
rradius 41.9808
rwrist 14.6804
rhand -33.306 0.496736
rfingers 7.12502
rthumb -6.5096 -29.3832
lclavicle -1.11071e-014 -5.76476e-015
lhumerus -24.6139 4.66298 80.1986
lradius 31.8777
lwrist 0.801664
lhand -20.5667 24.24
lfingers 7.12502
lthumb 5.79273 54.1408
rfemur -21.9998 7.10014 14.9416
rtibia 40.5737
rfoot -23.6951 -5.32087
rtoes -3.42522
lfemur -20.9952 5.53585 -22.5767
ltibia 40.4806
lfoot -19.8464 3.61003
ltoes -0.419321
